<?xml version="1.0" encoding="iso-8859-1"?>
<!-- Uploaded to: SVG Repo, www.svgrepo.com, Generator: SVG Repo Mixer Tools -->
<svg version="1.1" id="Layer_1" xmlns="http://www.w3.org/2000/svg" xmlns:xlink="http://www.w3.org/1999/xlink" 
	 viewBox="0 0 512 512" xml:space="preserve">
<path style="fill:#FFEA8A;" d="M249.783,0.118C164.426,3.359,96.311,74.366,96.416,159.784
	c0.053,43.258,17.319,82.48,45.314,111.193c21.96,22.523,34.478,52.583,34.478,84.038v4.049v13.299h159.584v-13.299v-4.045
	c0-31.47,12.539-61.532,34.503-84.068c28.024-28.754,45.289-68.044,45.289-111.367C415.584,69.385,340.751-3.337,249.783,0.118z"/>
<path style="fill:#FFDB2D;" d="M256,0.013v372.35h79.792v-13.299v-4.045c0-31.47,12.539-61.532,34.503-84.068
	c28.024-28.754,45.289-68.044,45.289-111.367C415.584,71.448,344.134,0.016,256,0.013z"/>
<polygon style="fill:#FFAF33;" points="323.299,213.585 295.09,185.376 256,224.465 216.91,185.376 188.701,213.585 
	236.052,260.938 236.052,372.363 275.948,372.363 275.948,260.938 "/>
<rect x="236.052" y="438.857" style="fill:#AEADB3;" width="39.896" height="73.143"/>
<path style="fill:#DFDFE1;" d="M256,452.156c51.413,0,93.091-41.678,93.091-93.091H162.909
	C162.909,410.478,204.587,452.156,256,452.156z"/>
<path style="fill:#CFCDD2;" d="M256,359.065v93.091c51.413,0,93.091-41.678,93.091-93.091H256z"/>
</svg>